<svg width="72" height="24" viewBox="0 0 72 24" fill="none" xmlns="http://www.w3.org/2000/svg">
<path d="M0 0V14.769C0 20.3371 3.9 23.9996 9 23.9996C11.49 23.9996 13.68 23.0467 15.27 21.409V23.6125H18.81V0H15.24V14.5605C15.24 18.3123 12.69 20.8433 9.42 20.8433C6.09 20.8433 3.57 18.3719 3.57 14.5605V0H0ZM22.32 0V23.6125H25.71V21.4388C26.5166 22.2524 27.4787 22.8979 28.5399 23.3376C29.6011 23.7774 30.74 24.0024 31.89 23.9996C33.0871 24.0115 34.2745 23.7863 35.3828 23.3371C36.4911 22.8879 37.4979 22.2238 38.3444 21.3836C39.1909 20.5435 39.86 19.5441 40.3126 18.4441C40.7651 17.3441 40.992 16.1655 40.98 14.9774C40.9801 13.7968 40.7443 12.6278 40.2864 11.5382C39.8285 10.4485 39.1575 9.45979 38.3122 8.62912C37.4669 7.79846 36.4641 7.14234 35.3618 6.69871C34.2595 6.25508 33.0794 6.03275 31.89 6.04455C30.7446 6.04233 29.6103 6.26777 28.5541 6.70757C27.4978 7.14737 26.541 7.79263 25.74 8.6053V0H22.32ZM51.93 6.04455C46.86 6.04455 43.02 10.1537 43.02 14.9774C43.02 20.1287 47.04 23.9102 52.23 23.9102C55.41 23.9102 57.99 22.6001 59.7 20.3073L57.24 18.4612C55.95 20.1882 54.24 20.9326 52.23 20.9326C49.32 20.9326 46.98 18.9078 46.5 16.1089H60.6V14.9774C60.6 9.88567 56.91 6.04455 51.93 6.04455ZM70.8 6.28276C68.91 6.28276 67.5 7.14627 66.66 8.51597V6.40186H63.27V23.6125H66.69V13.8161C66.69 11.166 68.34 9.43903 70.59 9.43903H72V6.25298H70.8M51.87 9.02216C54.42 9.02216 56.55 10.779 57.12 13.3993H46.5C47.19 10.779 49.32 9.02216 51.87 9.02216ZM31.65 9.02216C34.92 9.02216 37.59 11.702 37.59 14.9774C37.59 18.3421 34.92 20.9326 31.65 20.9326C30.0639 20.9247 28.5455 20.2938 27.4267 19.1779C26.308 18.0619 25.68 16.5517 25.68 14.9774C25.68 13.4031 26.308 11.8929 27.4267 10.7769C28.5455 9.66093 30.0639 9.03003 31.65 9.02216Z" fill="white"/>
</svg>
